<svg xmlns="http://www.w3.org/2000/svg" width="24" height="24" viewBox="0 0 24 24">
  <g id="Group_2996" data-name="Group 2996" transform="translate(-58 -11)">
    <rect id="Rectangle_2626" data-name="Rectangle 2626" width="24" height="24" transform="translate(58 11)" fill="none"/>
    <g id="Group_3003" data-name="Group 3003" transform="translate(-133.904 -469.874)">
      <path id="Subtraction_3" data-name="Subtraction 3" d="M14.251,18H2.9A2.906,2.906,0,0,1,0,15.1V7.452A2.618,2.618,0,0,1,1,5.4L2.13,4.526,7.462.383a1.817,1.817,0,0,1,2.232,0l6.462,5.041a2.576,2.576,0,0,1,1,2.046V15.1A2.906,2.906,0,0,1,14.251,18ZM5.9,12.814h0v1.8h5.357v-1.8Z" transform="translate(195.327 483.874)" fill="#2643e5"/>
    </g>
  </g>
</svg>
