<svg id="Group_7" data-name="Group 7" xmlns="http://www.w3.org/2000/svg" width="20" height="20" viewBox="0 0 20 20">
  <path id="Path_2" data-name="Path 2" d="M1.929,15.553A1.148,1.148,0,0,1,.792,14.416V6.471A1.149,1.149,0,0,1,1.929,5.334H3.634a1.145,1.145,0,0,1,.987.59c.382-.236.757-.373,1-.513a3.091,3.091,0,0,0,1-2.224c.066-.483.1-.948.163-1.336A2.224,2.224,0,0,1,6.918,1.3.757.757,0,0,1,7.6.793a2.565,2.565,0,0,1,1.973.837,3.558,3.558,0,0,1,.759,1.763,10.323,10.323,0,0,1,.077,2.514h3.432a1.713,1.713,0,0,1,1.707,1.7,3.107,3.107,0,0,1-.214.965c-.12.388-.281.856-.461,1.356-.356,1-.781,2.132-1.06,2.966a2.831,2.831,0,0,1-.515.985,1.553,1.553,0,0,1-1.156.538H5.335a1.66,1.66,0,0,1-.566-.105v.107a1.145,1.145,0,0,1-1.135,1.135Zm0-1.137H3.634V6.471H1.929Zm3.406-1.135h6.812a.31.31,0,0,0,.3-.146,1.958,1.958,0,0,0,.3-.6c.29-.869.714-2,1.066-2.986.176-.493.335-.95.444-1.308s.165-.678.165-.631a.556.556,0,0,0-.571-.566H9.827a.568.568,0,0,1-.571-.571,15.812,15.812,0,0,0-.032-2.883,2.525,2.525,0,0,0-.5-1.21,1.3,1.3,0,0,0-.811-.427c-.058.324-.1.877-.169,1.394a3.891,3.891,0,0,1-1.557,3.05c-.423.242-.83.386-1.072.553a.623.623,0,0,0-.343.659V12.71a.553.553,0,0,0,.564.571Z" transform="translate(1.814 1.813)" fill="#979797"/>
  <rect id="Rectangle_4" data-name="Rectangle 4" width="20" height="20" fill="none"/>
</svg>
