<svg id="Group_287" data-name="Group 287" xmlns="http://www.w3.org/2000/svg" width="20" height="20" viewBox="0 0 20 20">
  <path id="Path_2" data-name="Path 2" d="M1.817,14.107A1.035,1.035,0,0,1,.792,13.082V5.915A1.036,1.036,0,0,1,1.817,4.889H3.356a1.033,1.033,0,0,1,.89.532c.344-.213.683-.337.9-.462a2.789,2.789,0,0,0,.9-2.006c.06-.435.093-.855.147-1.205a2.007,2.007,0,0,1,.124-.5A.683.683,0,0,1,6.937.793a2.314,2.314,0,0,1,1.78.755A3.21,3.21,0,0,1,9.4,3.138a9.312,9.312,0,0,1,.07,2.268h3.1a1.546,1.546,0,0,1,1.54,1.534,2.8,2.8,0,0,1-.193.871c-.108.35-.253.772-.416,1.223-.321.9-.7,1.923-.956,2.676a2.554,2.554,0,0,1-.464.888,1.4,1.4,0,0,1-1.043.486H4.89a1.5,1.5,0,0,1-.511-.095v.1a1.033,1.033,0,0,1-1.024,1.024Zm0-1.025H3.356V5.915H1.817ZM4.89,12.058h6.145a.28.28,0,0,0,.267-.132,1.767,1.767,0,0,0,.271-.546c.261-.784.644-1.8.962-2.693.159-.445.3-.857.4-1.18s.149-.611.149-.569a.5.5,0,0,0-.515-.511H8.942a.513.513,0,0,1-.515-.515,14.263,14.263,0,0,0-.029-2.6,2.277,2.277,0,0,0-.451-1.091,1.174,1.174,0,0,0-.731-.385c-.052.292-.087.791-.153,1.258a3.51,3.51,0,0,1-1.4,2.751c-.381.219-.749.348-.967.5a.562.562,0,0,0-.31.594v4.605a.5.5,0,0,0,.509.515Z" transform="translate(2.537 2.536)" fill="#979797"/>
  <rect id="Rectangle_4" data-name="Rectangle 4" width="20" height="20" fill="none"/>
</svg>
