<svg xmlns="http://www.w3.org/2000/svg" width="24" height="24" viewBox="0 0 24 24">
  <g id="Group_5407" data-name="Group 5407" transform="translate(-202 93)">
    <g id="Group_285" data-name="Group 285" transform="translate(207.322 -89.445)">
      <path id="Path_34" data-name="Path 34" d="M0,9.954V9.769A3.04,3.04,0,0,1,.509,8.233,4.113,4.113,0,0,0,1.516,6.279c0-.563,0-1.134.049-1.7C1.82,1.873,4.5,0,7.145,0h.066C9.857,0,12.536,1.873,12.8,4.583c.049.563,0,1.134.041,1.7a4.184,4.184,0,0,0,1.008,1.962,2.962,2.962,0,0,1,.508,1.528v.177a3.011,3.011,0,0,1-.713,2.018,3.8,3.8,0,0,1-2.409,1.158,38.063,38.063,0,0,1-8.119,0A3.846,3.846,0,0,1,.705,11.964,3.043,3.043,0,0,1,0,9.954ZM5.113,15.92a2.606,2.606,0,0,0,3.621.426,2.439,2.439,0,0,0,.442-.426" transform="translate(0)" fill="none" stroke="#200e32" stroke-linecap="round" stroke-linejoin="round" stroke-width="1.5" fill-rule="evenodd"/>
    </g>
    <rect id="Rectangle_126" data-name="Rectangle 126" width="24" height="24" transform="translate(202 -93)" fill="none"/>
  </g>
</svg>
