<svg xmlns="http://www.w3.org/2000/svg" width="42" height="42" viewBox="0 0 42 42">
  <g id="Group_353" data-name="Group 353" transform="translate(-0.467 -0.467)">
    <path id="Path_39" data-name="Path 39" d="M21.577,1040.8a1.825,1.825,0,0,0-1.137.433l-11.295,9.286-3.815-5.21a1.822,1.822,0,0,0-2.59-.378,1.924,1.924,0,0,0-.369,2.652l4.96,6.771a1.841,1.841,0,0,0,1.248.743,1.818,1.818,0,0,0,1.389-.4l12.787-10.508a1.921,1.921,0,0,0,.6-2.128,1.852,1.852,0,0,0-1.782-1.257Z" transform="translate(8.734 -1026.489)" fill="#fff" fill-rule="evenodd"/>
    <rect id="Rectangle_150" data-name="Rectangle 150" width="42" height="42" transform="translate(0.467 0.467)" fill="none"/>
  </g>
</svg>
