<svg xmlns="http://www.w3.org/2000/svg" width="24" height="24" viewBox="0 0 24 24">
  <g id="Group_5409" data-name="Group 5409" transform="translate(-176 -216)">
    <g id="Layer_2" data-name="Layer 2" transform="translate(180 220)">
      <path id="search" d="M18.737,17.475l-3.021-3.012a7.038,7.038,0,0,0,1.5-4.354,7.109,7.109,0,1,0-7.109,7.109,7.038,7.038,0,0,0,4.354-1.5l3.012,3.021a.892.892,0,1,0,1.262-1.262ZM4.777,10.109a5.332,5.332,0,1,1,5.332,5.332,5.332,5.332,0,0,1-5.332-5.332Z" transform="translate(-3 -3)"/>
    </g>
    <rect id="Rectangle_2" data-name="Rectangle 2" width="24" height="24" transform="translate(176 216)" fill="none"/>
  </g>
</svg>
